<svg xmlns="http://www.w3.org/2000/svg" width="38" height="38" viewBox="0 0 38 38">
  <path d="M9.22165605,1.72815287 C9.22165605,0.779363057 9.99617834,0.00484076433 10.9449682,0.00484076433 C11.893758,0.00484076433 12.6682803,0.779363057 12.6682803,1.72815287 L12.6682803,10.9449682 C12.6682803,11.2547771 12.590828,11.564586 12.4359236,11.8163057 L12.4359236,11.8163057 L12.4165605,11.8550318 L12.4165605,11.8550318 L12.3971975,11.8743949 L12.3778344,11.893758 L12.3778344,11.913121 L12.3584713,11.9324841 L12.3584713,11.9518471 L12.3391083,11.9712102 L12.3391083,11.9712102 C12.2229299,12.1067516 12.1067516,12.2229299 11.9712102,12.3391083 L11.9712102,12.3391083 L11.9518471,12.3584713 L11.9324841,12.3584713 L11.913121,12.3778344 L11.893758,12.3778344 L11.8743949,12.3971975 L11.8550318,12.4165605 L11.8550318,12.4165605 L11.8163057,12.4359236 L11.8163057,12.4359236 C11.564586,12.590828 11.2547771,12.6682803 10.9449682,12.6682803 L1.72815287,12.6682803 C0.779363057,12.6682803 0.00484076433,11.893758 0.00484076433,10.9449682 C0.00484076433,9.99617834 0.779363057,9.22165605 1.72815287,9.22165605 L6.78191083,9.22165605 L0.508280255,2.94802548 C-0.169426752,2.27031847 -0.169426752,1.18598726 0.508280255,0.508280255 C1.18598726,-0.169426752 2.27031847,-0.169426752 2.94802548,0.508280255 L9.22165605,6.78191083 L9.22165605,1.72815287 Z M31.2374522,28.797707 L37.4917197,35.0519745 C38.1694268,35.7296815 38.1694268,36.8140127 37.4917197,37.4917197 C36.8140127,38.1694268 35.7296815,38.1694268 35.0519745,37.4917197 L28.797707,31.2374522 L28.797707,36.2718471 C28.797707,37.2206369 28.0231847,37.9951592 27.0743949,37.9951592 C26.106242,37.9951592 25.3317197,37.2206369 25.3317197,36.2718471 L25.3317197,27.0550318 C25.3317197,26.7452229 25.428535,26.4547771 25.5834395,26.1836943 L25.5834395,26.1836943 L25.6028025,26.1643312 L25.6028025,26.1449682 L25.6028025,26.1256051 L25.6221656,26.106242 L25.6415287,26.106242 L25.6415287,26.086879 L25.6608917,26.0675159 L25.6802548,26.0481529 L25.6802548,26.0481529 C25.7770701,25.8932484 25.8932484,25.7770701 26.0481529,25.6802548 L26.0481529,25.6802548 L26.0675159,25.6608917 L26.086879,25.6415287 L26.106242,25.6415287 L26.106242,25.6221656 L26.1256051,25.6028025 L26.1449682,25.6028025 L26.1643312,25.6028025 L26.1836943,25.5834395 L26.1836943,25.5834395 C26.4547771,25.428535 26.7452229,25.3317197 27.0743949,25.3317197 L36.2718471,25.3317197 C37.2206369,25.3317197 37.9951592,26.106242 37.9951592,27.0550318 C37.9951592,28.0231847 37.2206369,28.797707 36.2718471,28.797707 L31.2374522,28.797707 L31.2374522,28.797707 Z M9.22165605,31.2374522 L2.94802548,37.4917197 C2.27031847,38.1694268 1.18598726,38.1694268 0.508280255,37.4917197 C-0.169426752,36.8140127 -0.169426752,35.7296815 0.508280255,35.0519745 L6.78191083,28.797707 L1.72815287,28.797707 C0.779363057,28.797707 0.00484076433,28.0231847 0.00484076433,27.0550318 C0.00484076433,26.106242 0.779363057,25.3317197 1.72815287,25.3317197 L10.9449682,25.3317197 C11.2547771,25.3317197 11.564586,25.428535 11.8163057,25.5834395 L11.8163057,25.5834395 L11.8550318,25.6028025 L11.8550318,25.6028025 L11.8743949,25.6028025 L11.893758,25.6221656 L11.913121,25.6415287 L11.9324841,25.6415287 L11.9518471,25.6608917 L11.9712102,25.6802548 L11.9712102,25.6802548 C12.1067516,25.7770701 12.2229299,25.8932484 12.3391083,26.0481529 L12.3391083,26.0481529 L12.3584713,26.0675159 L12.3584713,26.086879 L12.3778344,26.106242 L12.3778344,26.106242 L12.3971975,26.1256051 L12.4165605,26.1449682 L12.4165605,26.1643312 L12.4359236,26.1836943 L12.4359236,26.1836943 C12.590828,26.4547771 12.6682803,26.7452229 12.6682803,27.0550318 L12.6682803,36.2718471 C12.6682803,37.2206369 11.893758,37.9951592 10.9449682,37.9951592 C9.99617834,37.9951592 9.22165605,37.2206369 9.22165605,36.2718471 L9.22165605,31.2374522 L9.22165605,31.2374522 Z M28.797707,6.78191083 L35.0519745,0.508280255 C35.7296815,-0.169426752 36.8140127,-0.169426752 37.4917197,0.508280255 C38.1694268,1.18598726 38.1694268,2.27031847 37.4917197,2.94802548 L31.2374522,9.22165605 L36.2718471,9.22165605 C37.2206369,9.22165605 37.9951592,9.99617834 37.9951592,10.9449682 C37.9951592,11.893758 37.2206369,12.6682803 36.2718471,12.6682803 L27.0743949,12.6682803 C26.7452229,12.6682803 26.4547771,12.590828 26.1836943,12.4359236 L26.1836943,12.4359236 L26.1643312,12.4165605 L26.1449682,12.4165605 L26.1256051,12.3971975 L26.106242,12.3778344 L26.106242,12.3778344 L26.086879,12.3584713 L26.0675159,12.3584713 L26.0481529,12.3391083 L26.0481529,12.3391083 C25.8932484,12.2229299 25.7770701,12.1067516 25.6802548,11.9712102 L25.6802548,11.9712102 L25.6608917,11.9518471 L25.6415287,11.9324841 L25.6415287,11.913121 L25.6221656,11.893758 L25.6028025,11.8743949 L25.6028025,11.8550318 L25.6028025,11.8550318 L25.5834395,11.8163057 L25.5834395,11.8163057 C25.428535,11.564586 25.3317197,11.2547771 25.3317197,10.9449682 L25.3317197,1.72815287 C25.3317197,0.779363057 26.106242,0.00484076433 27.0743949,0.00484076433 C28.0231847,0.00484076433 28.797707,0.779363057 28.797707,1.72815287 L28.797707,6.78191083 L28.797707,6.78191083 Z"/>
</svg>
