<svg xmlns="http://www.w3.org/2000/svg" width="38" height="38" viewBox="0 0 38 38">
  <path d="M32.5,27.9736564 C32.5,28.5208655 32.1797501,28.6442162 31.7993181,28.2637842 L23.2362158,19.7006819 C22.8492399,19.313706 22.8557838,18.6797501 23.2362158,18.2993181 L31.7993181,9.7362158 C32.186294,9.3492399 32.5,9.4799258 32.5,10.0263436 L32.5,11.0067093 C32.5,12.3837158 33.6096621,13.5 35,13.5 L35,13.5 C36.3807119,13.5 37.5,12.3803758 37.5,10.9934692 L37.5,3.0065308 C37.5,1.622212 36.3803758,0.5 34.9934692,0.5 L27.0065308,0.5 C25.622212,0.5 24.5,1.6096621 24.5,3 L24.5,3 C24.5,4.3807119 25.6265733,5.5 26.9932907,5.5 L27.9736564,5.5 C28.5208655,5.5 28.6442162,5.8202499 28.2637842,6.2006819 L19.7006819,14.7637842 C19.313706,15.1507601 18.6797501,15.1442162 18.2993181,14.7637842 L9.7362158,6.2006819 C9.3492399,5.813706 9.4799258,5.5 10.0263436,5.5 L11.0067093,5.5 C12.3837158,5.5 13.5,4.3903379 13.5,3 L13.5,3 C13.5,1.6192881 12.3803758,0.5 10.9934692,0.5 L3.0065308,0.5 C1.622212,0.5 0.5,1.6196242 0.5,3.0065308 L0.5,10.9934692 C0.5,12.377788 1.6096621,13.5 3,13.5 L3,13.5 C4.3807119,13.5 5.5,12.3734267 5.5,11.0067093 L5.5,10.0263436 C5.5,9.4791345 5.8202499,9.3557838 6.2006819,9.7362158 L14.7637842,18.2993181 C15.1507601,18.686294 15.1442162,19.3202499 14.7637842,19.7006819 L6.2006819,28.2637842 C5.813706,28.6507601 5.5,28.5200742 5.5,27.9736564 L5.5,26.9932907 C5.5,25.6162842 4.3903379,24.5 3,24.5 L3,24.5 C1.6192881,24.5 0.5,25.6196242 0.5,27.0065308 L0.5,34.9934692 C0.5,36.377788 1.6196242,37.5 3.0065308,37.5 L10.9934692,37.5 C12.377788,37.5 13.5,36.3903379 13.5,35 L13.5,35 C13.5,33.6192881 12.3734267,32.5 11.0067093,32.5 L10.0263436,32.5 C9.4791345,32.5 9.3557838,32.1797501 9.7362158,31.7993181 L18.2993181,23.2362158 C18.686294,22.8492399 19.3202499,22.8557838 19.7006819,23.2362158 L28.2637842,31.7993181 C28.6507601,32.186294 28.5200742,32.5 27.9736564,32.5 L26.9932907,32.5 C25.6162842,32.5 24.5,33.6096621 24.5,35 L24.5,35 C24.5,36.3807119 25.6196242,37.5 27.0065308,37.5 L34.9934692,37.5 C36.377788,37.5 37.5,36.3803758 37.5,34.9934692 L37.5,27.0065308 C37.5,25.622212 36.3903379,24.5 35,24.5 L35,24.5 C33.6192881,24.5 32.5,25.6265733 32.5,26.9932907 L32.5,27.9736564 Z"/>
</svg>
